# xmcd CD database file
#
# Track frame offsets:
#	150
#	35270
#	60288
#	88493
#	110963
#	132895
#	154490
#	185388
#	211180
#	231885
#
# Disc length: 3521 seconds
#
# Revision: 0
# Processed by: cddbd v1.5PL3 Copyright (c) Steve Scherf et al.
# Submitted via: CDex 1.50beta9
#
DISCID=8a0dbf0a
DTITLE=YAS - Bardo
DYEAR=1998
DGENRE=Ambient
TTITLE0=HANA
TTITLE1=RECOLLECTION
TTITLE2=WELL WELL WELL
TTITLE3=RINNE
TTITLE4=IF ONLY I COULD BE FRIENDS
TTITLE5=STRAWBERRY FIELDS FOREVER
TTITLE6=AME
TTITLE7=DEAR SOLDIER
TTITLE8=A・I・SHITERU
TTITLE9=HANA（青龍 Remix）
EXTD=YEAR: 1998
EXTT0=
EXTT1=
EXTT2=
EXTT3=
EXTT4=
EXTT5=
EXTT6=
EXTT7=
EXTT8=
EXTT9=
PLAYORDER=
